# xmcd
# 
# Track frame offsets:
#     150
#     27669
#     62815
#     80087
#     111282
#     132872
#     166435
#     182645
#     195105
#     220325
#     240197
# 
# Disc length: 3418
# 
# Revision: 1
# Processed by: cddbd v1.5.2PL0 Copyright (c) Steve Scherf et al.
# Submitted via: fre:ac v1.0.27
# 
DISCID=940d580b
DTITLE=Charlie Mariano - Savannah Samurai
DYEAR=1998
DGENRE=Jazz
TTITLE0=Children Steps
TTITLE1=Luna Doone
TTITLE2=Dark Alley
TTITLE3=Ages Ago
TTITLE4=Savannah Samurai
TTITLE5=Waltz For Dani
TTITLE6=Dark Alley 2
TTITLE7=Fall
TTITLE8=Winter
TTITLE9=Spring
TTITLE10=Summer
EXTD=YEAR: 1998
EXTT0=
EXTT1=
EXTT2=
EXTT3=
EXTT4=
EXTT5=
EXTT6=
EXTT7=
EXTT8=
EXTT9=
EXTT10=
PLAYORDER=
